<svg width="288" height="287" viewBox="0 0 288 287" fill="none" xmlns="http://www.w3.org/2000/svg">
<rect x="176.315" y="12.2304" width="39.5" height="39.5" rx="3.75" transform="rotate(-19 176.315 12.2304)" fill="white" stroke="black" stroke-width="0.5"/>
<rect x="131.729" y="26.0874" width="39.5" height="39.5" rx="3.75" transform="rotate(-19 131.729 26.0874)" fill="white" stroke="black" stroke-width="0.5"/>
<rect x="87.6022" y="41.2812" width="39.5" height="39.5" rx="3.75" transform="rotate(-19 87.6022 41.2812)" fill="white" stroke="black" stroke-width="0.5"/>
<rect x="43.4757" y="56.4753" width="39.5" height="39.5" rx="3.75" transform="rotate(-19 43.4757 56.4753)" fill="white" stroke="black" stroke-width="0.5"/>
<rect x="118.45" y="130.871" width="39.5" height="39.5" rx="3.75" transform="rotate(-19 118.45 130.871)" fill="white" stroke="black" stroke-width="0.5"/>
<rect x="192.847" y="55.8964" width="39.5" height="39.5" rx="3.75" transform="rotate(-19 192.847 55.8964)" fill="white" stroke="black" stroke-width="0.5"/>
<rect x="147.383" y="71.551" width="39.5" height="39.5" rx="3.75" transform="rotate(-19 147.383 71.551)" fill="#024899" stroke="black" stroke-width="0.5"/>
<rect x="163.015" y="114.779" width="39.5" height="39.5" rx="3.75" transform="rotate(-19 163.015 114.779)" fill="#024899" stroke="black" stroke-width="0.5"/>
<rect x="178.67" y="160.242" width="39.5" height="39.5" rx="3.75" transform="rotate(-19 178.67 160.242)" fill="#024899" stroke="black" stroke-width="0.5"/>
<rect x="134.982" y="174.537" width="39.5" height="39.5" rx="3.75" transform="rotate(-19 134.982 174.537)" fill="#024899" stroke="black" stroke-width="0.5"/>
<rect x="89.518" y="190.192" width="39.5" height="39.5" rx="3.75" transform="rotate(-19 89.518 190.192)" fill="#024899" stroke="black" stroke-width="0.5"/>
<rect x="73.4252" y="145.627" width="39.5" height="39.5" rx="3.75" transform="rotate(-19 73.4252 145.627)" fill="#024899" stroke="black" stroke-width="0.5"/>
<rect x="59.13" y="101.939" width="39.5" height="39.5" rx="3.75" transform="rotate(-19 59.13 101.939)" fill="#024899" stroke="black" stroke-width="0.5"/>
<rect x="103.695" y="85.8461" width="39.5" height="39.5" rx="3.75" transform="rotate(-19 103.695 85.8461)" fill="#024899" stroke="black" stroke-width="0.5"/>
<rect x="-0.190285" y="73.0063" width="39.5" height="39.5" rx="3.75" transform="rotate(-19 -0.190285 73.0063)" fill="#4D99F2" stroke="black" stroke-width="0.5"/>
<rect x="14.1049" y="116.695" width="39.5" height="39.5" rx="3.75" transform="rotate(-19 14.1049 116.695)" fill="#4D99F2" stroke="black" stroke-width="0.5"/>
<rect x="29.7592" y="162.158" width="39.5" height="39.5" rx="3.75" transform="rotate(-19 29.7592 162.158)" fill="#4D99F2" stroke="black" stroke-width="0.5"/>
<rect x="44.4928" y="204.947" width="39.5" height="39.5" rx="3.75" transform="rotate(-19 44.4928 204.947)" fill="#4D99F2" stroke="black" stroke-width="0.5"/>
<rect x="60.1471" y="250.411" width="39.5" height="39.5" rx="3.75" transform="rotate(-19 60.1471 250.411)" fill="#4D99F2" stroke="black" stroke-width="0.5"/>
<rect x="104.712" y="234.318" width="39.5" height="39.5" rx="3.75" transform="rotate(-19 104.712 234.318)" fill="#4D99F2" stroke="black" stroke-width="0.5"/>
<rect x="149.299" y="220.461" width="39.5" height="39.5" rx="3.75" transform="rotate(-19 149.299 220.461)" fill="#4D99F2" stroke="black" stroke-width="0.5"/>
<rect x="208.04" y="100.023" width="39.5" height="39.5" rx="3.75" transform="rotate(-19 208.04 100.023)" fill="white" stroke="black" stroke-width="0.5"/>
<rect x="223.235" y="144.149" width="39.5" height="39.5" rx="3.75" transform="rotate(-19 223.235 144.149)" fill="white" stroke="black" stroke-width="0.5"/>
<rect x="237.99" y="189.175" width="39.5" height="39.5" rx="3.75" transform="rotate(-19 237.99 189.175)" fill="white" stroke="black" stroke-width="0.5"/>
<rect x="193.864" y="204.369" width="39.5" height="39.5" rx="3.75" transform="rotate(-19 193.864 204.369)" fill="white" stroke="black" stroke-width="0.5"/>
</svg>
