<svg width="288" height="288" viewBox="0 0 288 288" fill="none" xmlns="http://www.w3.org/2000/svg">
<rect x="176.208" y="12.2866" width="40" height="40" rx="4" transform="rotate(-19 176.208 12.2866)" fill="white"/>
<rect x="131.621" y="26.1436" width="40" height="40" rx="4" transform="rotate(-19 131.621 26.1436)" fill="white"/>
<rect x="87.4949" y="41.3374" width="40" height="40" rx="4" transform="rotate(-19 87.4949 41.3374)" fill="white"/>
<rect x="43.3684" y="56.5315" width="40" height="40" rx="4" transform="rotate(-19 43.3684 56.5315)" fill="white"/>
<rect x="118.343" y="130.927" width="40" height="40" rx="4" transform="rotate(-19 118.343 130.927)" fill="white"/>
<rect x="192.739" y="55.9526" width="40" height="40" rx="4" transform="rotate(-19 192.739 55.9526)" fill="white"/>
<rect x="147.276" y="71.6072" width="40" height="40" rx="4" transform="rotate(-19 147.276 71.6072)" fill="#024899"/>
<rect x="162.908" y="114.835" width="40" height="40" rx="4" transform="rotate(-19 162.908 114.835)" fill="#024899"/>
<rect x="178.562" y="160.298" width="40" height="40" rx="4" transform="rotate(-19 178.562 160.298)" fill="#024899"/>
<rect x="134.874" y="174.594" width="40" height="40" rx="4" transform="rotate(-19 134.874 174.594)" fill="#024899"/>
<rect x="89.4106" y="190.248" width="40" height="40" rx="4" transform="rotate(-19 89.4106 190.248)" fill="#024899"/>
<rect x="73.3179" y="145.683" width="40" height="40" rx="4" transform="rotate(-19 73.3179 145.683)" fill="#024899"/>
<rect x="59.0227" y="101.995" width="40" height="40" rx="4" transform="rotate(-19 59.0227 101.995)" fill="#024899"/>
<rect x="103.588" y="85.9023" width="40" height="40" rx="4" transform="rotate(-19 103.588 85.9023)" fill="#024899"/>
<rect x="-0.297607" y="73.0625" width="40" height="40" rx="4" transform="rotate(-19 -0.297607 73.0625)" fill="#4D99F2"/>
<rect x="13.9976" y="116.751" width="40" height="40" rx="4" transform="rotate(-19 13.9976 116.751)" fill="#4D99F2"/>
<rect x="29.6519" y="162.214" width="40" height="40" rx="4" transform="rotate(-19 29.6519 162.214)" fill="#4D99F2"/>
<rect x="44.3855" y="205.003" width="40" height="40" rx="4" transform="rotate(-19 44.3855 205.003)" fill="#4D99F2"/>
<rect x="60.0398" y="250.467" width="40" height="40" rx="4" transform="rotate(-19 60.0398 250.467)" fill="#4D99F2"/>
<rect x="104.604" y="234.374" width="40" height="40" rx="4" transform="rotate(-19 104.604 234.374)" fill="#4D99F2"/>
<rect x="149.191" y="220.518" width="40" height="40" rx="4" transform="rotate(-19 149.191 220.518)" fill="#4D99F2"/>
<rect x="207.933" y="100.079" width="40" height="40" rx="4" transform="rotate(-19 207.933 100.079)" fill="white"/>
<rect x="223.127" y="144.206" width="40" height="40" rx="4" transform="rotate(-19 223.127 144.206)" fill="white"/>
<rect x="237.883" y="189.231" width="40" height="40" rx="4" transform="rotate(-19 237.883 189.231)" fill="white"/>
<rect x="193.756" y="204.425" width="40" height="40" rx="4" transform="rotate(-19 193.756 204.425)" fill="white"/>
</svg>
