<svg width="166" height="29" viewBox="0 0 166 29" fill="none" xmlns="http://www.w3.org/2000/svg">
<path d="M39.7617 18.0019H43.9017V19.9999H37.2417V7.43586H39.7617V18.0019ZM49.9314 20.1619C48.9714 20.1619 48.1074 19.9519 47.3394 19.5319C46.5714 19.0999 45.9654 18.4939 45.5214 17.7139C45.0894 16.9339 44.8734 16.0339 44.8734 15.0139C44.8734 13.9939 45.0954 13.0939 45.5394 12.3139C45.9954 11.5339 46.6134 10.9339 47.3934 10.5139C48.1734 10.0819 49.0434 9.86586 50.0034 9.86586C50.9634 9.86586 51.8334 10.0819 52.6134 10.5139C53.3934 10.9339 54.0054 11.5339 54.4494 12.3139C54.9054 13.0939 55.1334 13.9939 55.1334 15.0139C55.1334 16.0339 54.8994 16.9339 54.4314 17.7139C53.9754 18.4939 53.3514 19.0999 52.5594 19.5319C51.7794 19.9519 50.9034 20.1619 49.9314 20.1619ZM49.9314 17.9659C50.3874 17.9659 50.8134 17.8579 51.2094 17.6419C51.6174 17.4139 51.9414 17.0779 52.1814 16.6339C52.4214 16.1899 52.5414 15.6499 52.5414 15.0139C52.5414 14.0659 52.2894 13.3399 51.7854 12.8359C51.2934 12.3199 50.6874 12.0619 49.9674 12.0619C49.2474 12.0619 48.6414 12.3199 48.1494 12.8359C47.6694 13.3399 47.4294 14.0659 47.4294 15.0139C47.4294 15.9619 47.6634 16.6939 48.1314 17.2099C48.6114 17.7139 49.2114 17.9659 49.9314 17.9659ZM70.8059 10.0279L67.8899 19.9999H65.1719L63.3539 13.0339L61.5359 19.9999H58.7999L55.8659 10.0279H58.4219L60.1859 17.6239L62.0939 10.0279H64.7579L66.6299 17.6059L68.3939 10.0279H70.8059ZM79.8374 12.5119V14.6359H72.2054V12.5119H79.8374ZM88.4956 20.1259C87.3196 20.1259 86.2396 19.8499 85.2556 19.2979C84.2716 18.7459 83.4916 17.9839 82.9156 17.0119C82.3396 16.0279 82.0516 14.9179 82.0516 13.6819C82.0516 12.4579 82.3396 11.3599 82.9156 10.3879C83.4916 9.40386 84.2716 8.63586 85.2556 8.08386C86.2396 7.53186 87.3196 7.25586 88.4956 7.25586C89.6836 7.25586 90.7636 7.53186 91.7356 8.08386C92.7196 8.63586 93.4936 9.40386 94.0576 10.3879C94.6336 11.3599 94.9216 12.4579 94.9216 13.6819C94.9216 14.9179 94.6336 16.0279 94.0576 17.0119C93.4936 17.9839 92.7196 18.7459 91.7356 19.2979C90.7516 19.8499 89.6716 20.1259 88.4956 20.1259ZM88.4956 17.8759C89.2516 17.8759 89.9176 17.7079 90.4936 17.3719C91.0696 17.0239 91.5196 16.5319 91.8436 15.8959C92.1676 15.2599 92.3296 14.5219 92.3296 13.6819C92.3296 12.8419 92.1676 12.1099 91.8436 11.4859C91.5196 10.8499 91.0696 10.3639 90.4936 10.0279C89.9176 9.69186 89.2516 9.52386 88.4956 9.52386C87.7396 9.52386 87.0676 9.69186 86.4796 10.0279C85.9036 10.3639 85.4536 10.8499 85.1296 11.4859C84.8056 12.1099 84.6436 12.8419 84.6436 13.6819C84.6436 14.5219 84.8056 15.2599 85.1296 15.8959C85.4536 16.5319 85.9036 17.0239 86.4796 17.3719C87.0676 17.7079 87.7396 17.8759 88.4956 17.8759ZM99.3167 11.4679C99.6407 11.0119 100.085 10.6339 100.649 10.3339C101.225 10.0219 101.879 9.86586 102.611 9.86586C103.463 9.86586 104.231 10.0759 104.915 10.4959C105.611 10.9159 106.157 11.5159 106.553 12.2959C106.961 13.0639 107.165 13.9579 107.165 14.9779C107.165 15.9979 106.961 16.9039 106.553 17.6959C106.157 18.4759 105.611 19.0819 104.915 19.5139C104.231 19.9459 103.463 20.1619 102.611 20.1619C101.879 20.1619 101.231 20.0119 100.667 19.7119C100.115 19.4119 99.6647 19.0339 99.3167 18.5779V24.7519H96.7964V10.0279H99.3167V11.4679ZM104.591 14.9779C104.591 14.3779 104.465 13.8619 104.213 13.4299C103.973 12.9859 103.649 12.6499 103.241 12.4219C102.845 12.1939 102.413 12.0799 101.945 12.0799C101.489 12.0799 101.057 12.1999 100.649 12.4399C100.253 12.6679 99.9287 13.0039 99.6767 13.4479C99.4367 13.8919 99.3167 14.4139 99.3167 15.0139C99.3167 15.6139 99.4367 16.1359 99.6767 16.5799C99.9287 17.0239 100.253 17.3659 100.649 17.6059C101.057 17.8339 101.489 17.9479 101.945 17.9479C102.413 17.9479 102.845 17.8279 103.241 17.5879C103.649 17.3479 103.973 17.0059 104.213 16.5619C104.465 16.1179 104.591 15.5899 104.591 14.9779ZM112.812 20.1619C111.996 20.1619 111.264 20.0179 110.616 19.7299C109.968 19.4299 109.452 19.0279 109.068 18.5239C108.696 18.0199 108.492 17.4619 108.456 16.8499H110.994C111.042 17.2339 111.228 17.5519 111.552 17.8039C111.888 18.0559 112.302 18.1819 112.794 18.1819C113.274 18.1819 113.646 18.0859 113.91 17.8939C114.186 17.7019 114.324 17.4559 114.324 17.1559C114.324 16.8319 114.156 16.5919 113.82 16.4359C113.496 16.2679 112.974 16.0879 112.254 15.8959C111.51 15.7159 110.898 15.5299 110.418 15.3379C109.95 15.1459 109.542 14.8519 109.194 14.4559C108.858 14.0599 108.69 13.5259 108.69 12.8539C108.69 12.3019 108.846 11.7979 109.158 11.3419C109.482 10.8859 109.938 10.5259 110.526 10.2619C111.126 9.99786 111.828 9.86586 112.632 9.86586C113.82 9.86586 114.768 10.1659 115.476 10.7659C116.184 11.3539 116.574 12.1519 116.646 13.1599H114.234C114.198 12.7639 114.03 12.4519 113.73 12.2239C113.442 11.9839 113.052 11.8639 112.56 11.8639C112.104 11.8639 111.75 11.9479 111.498 12.1159C111.258 12.2839 111.138 12.5179 111.138 12.8179C111.138 13.1539 111.306 13.4119 111.642 13.5919C111.978 13.7599 112.5 13.9339 113.208 14.1139C113.928 14.2939 114.522 14.4799 114.99 14.6719C115.458 14.8639 115.86 15.1639 116.196 15.5719C116.544 15.9679 116.724 16.4959 116.736 17.1559C116.736 17.7319 116.574 18.2479 116.25 18.7039C115.938 19.1599 115.482 19.5199 114.882 19.7839C114.294 20.0359 113.604 20.1619 112.812 20.1619Z" fill="#0C111D"/>
<g filter="url(#filter0_i_3276_11409)">
<path d="M20.9306 0.176947L17.0307 1.5119C16.7694 1.60133 16.6309 1.88534 16.7214 2.14625L18.0715 6.04096C18.162 6.30187 18.4471 6.44088 18.7083 6.35145L22.6083 5.0165C22.8695 4.92707 23.008 4.64306 22.9176 4.38215L21.5674 0.487439C21.477 0.226529 21.1919 0.0875167 20.9306 0.176947Z" fill="#024899"/>
<path d="M22.8232 5.68476L18.9232 7.01971C18.662 7.10914 18.5235 7.39315 18.614 7.65406L19.9641 11.5488C20.0545 11.8097 20.3397 11.9487 20.6009 11.8593L24.5009 10.5243C24.7621 10.4349 24.9006 10.1509 24.8101 9.88996L23.46 5.99525C23.3696 5.73434 23.0844 5.59533 22.8232 5.68476Z" fill="#024899"/>
<path d="M24.7236 11.2141L20.8236 12.549C20.5624 12.6384 20.4239 12.9224 20.5144 13.1834L21.8645 17.0781C21.9549 17.339 22.24 17.478 22.5013 17.3886L26.4012 16.0536C26.6625 15.9642 26.801 15.6802 26.7105 15.4193L25.3604 11.5245C25.27 11.2636 24.9848 11.1246 24.7236 11.2141Z" fill="#024899"/>
<path d="M19.2075 13.1203L15.3075 14.4553C15.0463 14.5447 14.9078 14.8287 14.9982 15.0896L16.3484 18.9843C16.4388 19.2452 16.7239 19.3842 16.9852 19.2948L20.8851 17.9599C21.1464 17.8704 21.2849 17.5864 21.1944 17.3255L19.8443 13.4308C19.7538 13.1699 19.4687 13.0309 19.2075 13.1203Z" fill="#024899"/>
<path d="M13.6914 15.0187L9.79141 16.3537C9.53015 16.4431 9.39168 16.7271 9.48213 16.988L10.8323 20.8828C10.9227 21.1437 11.2078 21.2827 11.4691 21.1932L15.369 19.8583C15.6303 19.7689 15.7688 19.4849 15.6783 19.2239L14.3282 15.3292C14.2377 15.0683 13.9526 14.9293 13.6914 15.0187Z" fill="#024899"/>
<path d="M11.7949 9.50214L7.89493 10.8371C7.63367 10.9265 7.4952 11.2105 7.58564 11.4714L8.93577 15.3662C9.02622 15.6271 9.31133 15.7661 9.5726 15.6766L13.4725 14.3417C13.7338 14.2523 13.8723 13.9683 13.7818 13.7073L12.4317 9.81263C12.3412 9.55172 12.0561 9.41271 11.7949 9.50214Z" fill="#024899"/>
<path d="M9.89789 3.98261L5.99796 5.31757C5.7367 5.407 5.59822 5.691 5.68867 5.95191L7.0388 9.84662C7.12925 10.1075 7.41436 10.2465 7.67562 10.1571L11.5756 8.82216C11.8368 8.73273 11.9753 8.44872 11.8848 8.18781L10.5347 4.2931C10.4443 4.03219 10.1592 3.89318 9.89789 3.98261Z" fill="#024899"/>
<path d="M15.4145 2.07929L11.5146 3.41424C11.2533 3.50367 11.1148 3.78768 11.2053 4.04859L12.5554 7.9433C12.6458 8.20421 12.931 8.34322 13.1922 8.25379L17.0922 6.91884C17.3534 6.82941 17.4919 6.5454 17.4014 6.28449L16.0513 2.38978C15.9609 2.12887 15.6758 1.98986 15.4145 2.07929Z" fill="#024899"/>
<path d="M4.38178 5.88788L0.481843 7.22284C0.220582 7.31227 0.0821104 7.59627 0.172557 7.85719L1.52269 11.7519C1.61313 12.0128 1.89825 12.1518 2.15951 12.0624L6.05945 10.7274C6.32071 10.638 6.45918 10.354 6.36873 10.0931L5.0186 6.19838C4.92816 5.93747 4.64304 5.79845 4.38178 5.88788Z" fill="#4D99F2"/>
<path d="M6.27827 11.4045L2.37833 12.7394C2.11707 12.8289 1.97859 13.1129 2.06904 13.3738L3.41917 17.2685C3.50962 17.5294 3.79473 17.6684 4.05599 17.579L7.95593 16.244C8.21719 16.1546 8.35566 15.8706 8.26522 15.6097L6.91509 11.715C6.82464 11.4541 6.53953 11.3151 6.27827 11.4045Z" fill="#4D99F2"/>
<path d="M8.17475 16.9221L4.27481 18.257C4.01355 18.3464 3.87508 18.6305 3.96553 18.8914L5.31566 22.7861C5.4061 23.047 5.69122 23.186 5.95248 23.0966L9.85242 21.7616C10.1137 21.6722 10.2521 21.3882 10.1617 21.1273L8.81157 17.2326C8.72112 16.9716 8.43601 16.8326 8.17475 16.9221Z" fill="#4D99F2"/>
<path d="M10.0712 22.4406L6.1713 23.7756C5.91004 23.865 5.77156 24.149 5.86201 24.4099L7.21214 28.3046C7.30259 28.5655 7.5877 28.7046 7.84896 28.6151L11.7489 27.2802C12.0102 27.1907 12.1486 26.9067 12.0582 26.6458L10.7081 22.7511C10.6176 22.4902 10.3325 22.3512 10.0712 22.4406Z" fill="#4D99F2"/>
<path d="M15.5878 20.5383L11.6879 21.8732C11.4266 21.9627 11.2882 22.2467 11.3786 22.5076L12.7287 26.4023C12.8192 26.6632 13.1043 26.8022 13.3656 26.7128L17.2655 25.3778C17.5268 25.2884 17.6652 25.0044 17.5748 24.7435L16.2247 20.8488C16.1342 20.5879 15.8491 20.4488 15.5878 20.5383Z" fill="#4D99F2"/>
<path d="M21.1039 18.635L17.204 19.9699C16.9428 20.0593 16.8043 20.3433 16.8947 20.6043L18.2449 24.499C18.3353 24.7599 18.6204 24.8989 18.8817 24.8095L22.7816 23.4745C23.0429 23.3851 23.1813 23.1011 23.0909 22.8402L21.7408 18.9454C21.6503 18.6845 21.3652 18.5455 21.1039 18.635Z" fill="#4D99F2"/>
<path d="M26.6201 16.7336L22.7201 18.0685C22.4589 18.158 22.3204 18.442 22.4108 18.7029L23.761 22.5976C23.8514 22.8585 24.1365 22.9975 24.3978 22.9081L28.2977 21.5731C28.559 21.4837 28.6975 21.1997 28.607 20.9388L27.2569 17.0441C27.1664 16.7832 26.8813 16.6442 26.6201 16.7336Z" fill="#4D99F2"/>
</g>
<rect x="129.5" y="5.5" width="36" height="16" rx="2.5" fill="#1F5EFF"/>
<rect x="129.5" y="5.5" width="36" height="16" rx="2.5" stroke="#0041E6"/>
<path d="M136.308 17.5H133.953V10.2273H136.382C137.095 10.2273 137.707 10.3729 138.218 10.6641C138.73 10.9529 139.121 11.3684 139.394 11.9105C139.668 12.4503 139.806 13.0978 139.806 13.853C139.806 14.6106 139.667 15.2616 139.39 15.8061C139.115 16.3506 138.718 16.7696 138.197 17.0632C137.676 17.3544 137.046 17.5 136.308 17.5ZM135.051 16.5412H136.247C136.801 16.5412 137.262 16.437 137.629 16.2287C137.996 16.018 138.27 15.7138 138.453 15.3161C138.635 14.916 138.726 14.4283 138.726 13.853C138.726 13.2824 138.635 12.7983 138.453 12.4006C138.273 12.0028 138.004 11.701 137.646 11.495C137.289 11.2891 136.845 11.1861 136.315 11.1861H135.051V16.5412ZM147.488 13.8636C147.488 14.6402 147.346 15.3078 147.061 15.8665C146.777 16.4228 146.388 16.8513 145.893 17.152C145.401 17.4503 144.841 17.5994 144.213 17.5994C143.584 17.5994 143.021 17.4503 142.527 17.152C142.034 16.8513 141.646 16.4216 141.362 15.8629C141.078 15.3042 140.936 14.6378 140.936 13.8636C140.936 13.0871 141.078 12.4207 141.362 11.8643C141.646 11.3056 142.034 10.8771 142.527 10.5788C143.021 10.2782 143.584 10.1278 144.213 10.1278C144.841 10.1278 145.401 10.2782 145.893 10.5788C146.388 10.8771 146.777 11.3056 147.061 11.8643C147.346 12.4207 147.488 13.0871 147.488 13.8636ZM146.401 13.8636C146.401 13.2718 146.305 12.7734 146.113 12.3686C145.924 11.9614 145.663 11.6536 145.332 11.4453C145.003 11.2346 144.63 11.1293 144.213 11.1293C143.794 11.1293 143.42 11.2346 143.091 11.4453C142.762 11.6536 142.502 11.9614 142.31 12.3686C142.121 12.7734 142.026 13.2718 142.026 13.8636C142.026 14.4555 142.121 14.955 142.31 15.3622C142.502 15.767 142.762 16.0748 143.091 16.2855C143.42 16.4938 143.794 16.598 144.213 16.598C144.63 16.598 145.003 16.4938 145.332 16.2855C145.663 16.0748 145.924 15.767 146.113 15.3622C146.305 14.955 146.401 14.4555 146.401 13.8636ZM154.896 12.5923H153.788C153.746 12.3556 153.666 12.1473 153.55 11.9673C153.434 11.7874 153.292 11.6347 153.124 11.5092C152.956 11.3838 152.768 11.2891 152.559 11.2251C152.354 11.1612 152.135 11.1293 151.903 11.1293C151.483 11.1293 151.108 11.2346 150.777 11.4453C150.448 11.656 150.187 11.965 149.996 12.3722C149.806 12.7794 149.711 13.2765 149.711 13.8636C149.711 14.4555 149.806 14.955 149.996 15.3622C150.187 15.7694 150.449 16.0772 150.78 16.2855C151.112 16.4938 151.485 16.598 151.899 16.598C152.129 16.598 152.346 16.5672 152.552 16.5057C152.761 16.4418 152.949 16.3482 153.117 16.2251C153.285 16.102 153.427 15.9517 153.543 15.7741C153.662 15.5942 153.743 15.3883 153.788 15.1562L154.896 15.1598C154.837 15.5173 154.722 15.8464 154.552 16.147C154.384 16.4453 154.167 16.7034 153.902 16.9212C153.639 17.1366 153.338 17.3035 153 17.4219C152.661 17.5402 152.292 17.5994 151.892 17.5994C151.262 17.5994 150.701 17.4503 150.209 17.152C149.716 16.8513 149.328 16.4216 149.044 15.8629C148.762 15.3042 148.621 14.6378 148.621 13.8636C148.621 13.0871 148.763 12.4207 149.047 11.8643C149.331 11.3056 149.72 10.8771 150.212 10.5788C150.705 10.2782 151.265 10.1278 151.892 10.1278C152.278 10.1278 152.638 10.1835 152.971 10.2947C153.308 10.4036 153.609 10.5646 153.877 10.7777C154.144 10.9884 154.366 11.2464 154.541 11.5518C154.716 11.8549 154.835 12.2017 154.896 12.5923ZM160.176 12.1378C160.138 11.8016 159.982 11.5412 159.707 11.3565C159.432 11.1695 159.087 11.076 158.67 11.076C158.372 11.076 158.114 11.1233 157.896 11.218C157.678 11.3104 157.509 11.4382 157.388 11.6016C157.27 11.7625 157.211 11.946 157.211 12.152C157.211 12.3248 157.251 12.474 157.331 12.5994C157.414 12.7249 157.522 12.8303 157.654 12.9155C157.789 12.9983 157.934 13.0682 158.088 13.125C158.242 13.1795 158.39 13.2244 158.532 13.2599L159.242 13.4446C159.474 13.5014 159.712 13.5784 159.956 13.6754C160.199 13.7725 160.426 13.9003 160.634 14.0589C160.842 14.2176 161.01 14.4141 161.138 14.6484C161.268 14.8828 161.333 15.1634 161.333 15.4901C161.333 15.902 161.227 16.2678 161.014 16.5874C160.803 16.907 160.497 17.1591 160.094 17.3438C159.694 17.5284 159.21 17.6207 158.642 17.6207C158.097 17.6207 157.626 17.5343 157.228 17.3615C156.831 17.1887 156.519 16.9437 156.294 16.6264C156.069 16.3068 155.945 15.928 155.922 15.4901H157.022C157.044 15.7528 157.129 15.9718 157.278 16.147C157.43 16.3198 157.623 16.4489 157.857 16.5341C158.094 16.617 158.353 16.6584 158.635 16.6584C158.945 16.6584 159.221 16.6098 159.462 16.5128C159.706 16.4134 159.898 16.276 160.037 16.1009C160.177 15.9233 160.247 15.7161 160.247 15.4794C160.247 15.264 160.185 15.0876 160.062 14.9503C159.941 14.813 159.777 14.6993 159.569 14.6094C159.363 14.5194 159.129 14.4401 158.869 14.3714L158.01 14.1371C157.427 13.9785 156.966 13.7453 156.625 13.4375C156.286 13.1297 156.117 12.7225 156.117 12.2159C156.117 11.7969 156.23 11.4311 156.458 11.1186C156.685 10.8061 156.993 10.5634 157.381 10.3906C157.769 10.2154 158.207 10.1278 158.695 10.1278C159.187 10.1278 159.622 10.2143 159.998 10.3871C160.377 10.5599 160.675 10.7978 160.893 11.1009C161.111 11.4015 161.225 11.7472 161.234 12.1378H160.176Z" fill="white"/>
<defs>
<filter id="filter0_i_3276_11409" x="0.14502" y="-0.0505859" width="28.6897" height="28.6932" filterUnits="userSpaceOnUse" color-interpolation-filters="sRGB">
<feFlood flood-opacity="0" result="BackgroundImageFix"/>
<feBlend mode="normal" in="SourceGraphic" in2="BackgroundImageFix" result="shape"/>
<feColorMatrix in="SourceAlpha" type="matrix" values="0 0 0 0 0 0 0 0 0 0 0 0 0 0 0 0 0 0 127 0" result="hardAlpha"/>
<feOffset dx="0.2" dy="-0.2"/>
<feGaussianBlur stdDeviation="0.1"/>
<feComposite in2="hardAlpha" operator="arithmetic" k2="-1" k3="1"/>
<feColorMatrix type="matrix" values="0 0 0 0 0 0 0 0 0 0 0 0 0 0 0 0 0 0 0.4 0"/>
<feBlend mode="normal" in2="shape" result="effect1_innerShadow_3276_11409"/>
</filter>
</defs>
</svg>
